<?xml version="1.0" encoding="utf-8"?>
<!-- Generator: Adobe Illustrator 16.0.4, SVG Export Plug-In . SVG Version: 6.00 Build 0)  -->
<!DOCTYPE svg PUBLIC "-//W3C//DTD SVG 1.1//EN" "http://www.w3.org/Graphics/SVG/1.1/DTD/svg11.dtd">
<svg version="1.1" id="Layer_1" xmlns="http://www.w3.org/2000/svg" xmlns:xlink="http://www.w3.org/1999/xlink" x="0px" y="0px"
	 width="360px" height="360px" viewBox="0 0 360 360" enable-background="new 0 0 360 360" xml:space="preserve">
<g>
	<g>
		<defs>
			<path id="SVGID_1_" d="M119.829,182.941c0-27.742,9.11-52.396,23.265-68.107H58.923v136.211h84.171
				C128.939,235.331,119.829,210.68,119.829,182.941z M317.748,268.869H41.062V96.991h276.686V268.869L317.748,268.869z
				 M23.606,286.104h311.603V79.051H23.606V286.104z M299.891,251.045V114.834h-84.17c14.127,15.713,23.266,40.366,23.266,68.107
				c0,27.736-9.139,52.39-23.266,68.104H299.891L299.891,251.045z M166.553,170.309c-1.688-1.448-2.554-3.504-2.554-6.197
				c0-1.688,0.304-3.158,0.913-4.421c0.608-1.259,1.429-2.314,2.485-3.177c1.056-0.844,2.25-1.476,3.563-1.876
				c1.286-0.42,2.623-0.604,4.002-0.604v19.807C171.053,172.955,168.263,171.784,166.553,170.309z M182.137,193.158
				c4.781,1.314,8.18,2.767,10.17,4.33c1.992,1.566,2.98,3.951,2.98,7.109c0,1.94-0.402,3.623-1.223,5.024
				c-0.82,1.429-1.83,2.624-3.094,3.582c-1.265,0.981-2.693,1.729-4.265,2.274c-1.572,0.51-3.119,0.86-4.57,1.021L182.137,193.158
				L182.137,193.158z M165.594,211.402c-2.531-2.688-3.753-6.316-3.661-10.946h-17.174c0.821,9.567,3.771,16.815,8.885,21.755
				c5.131,4.96,12.208,7.739,21.323,8.395v10.338h7.17v-10.338c6.096-0.396,11.086-1.641,14.998-3.649
				c3.869-2.038,6.986-4.351,9.299-6.944c2.326-2.578,3.92-5.219,4.81-7.957c0.887-2.712,1.332-4.957,1.332-6.731
				c0-2.011-0.138-4.33-0.418-6.927c-0.281-2.612-1.193-5.19-2.742-7.785c-1.522-2.596-3.938-5.076-7.17-7.461
				c-3.261-2.411-7.875-4.426-13.896-6.012c-1.146-0.35-2.228-0.608-3.213-0.867c-1.029-0.253-2.017-0.465-2.998-0.724v-21.518
				c2.766,0,5.108,1.125,7.055,3.417c1.967,2.269,2.973,5.007,3.07,8.258h17.271c-0.24-4.209-1.125-7.861-2.675-10.922
				c-1.549-3.112-3.541-5.662-5.952-7.746c-2.457-2.057-5.271-3.67-8.484-4.864c-3.207-1.167-6.635-1.937-10.284-2.361v-9.327
				h-7.175v9.327c-3.651,0.23-7.192,0.936-10.614,2.148c-3.397,1.153-6.399,2.808-9.018,4.961c-2.583,2.153-4.666,4.795-6.234,7.953
				c-1.595,3.154-2.393,6.824-2.393,10.946c0,4.047,0.706,7.437,2.089,10.153c1.355,2.711,3.209,4.979,5.528,6.805
				c2.295,1.82,4.919,3.297,7.852,4.348c2.905,1.125,5.883,2.084,8.88,2.896c0.821,0.17,1.568,0.33,2.273,0.543
				c0.678,0.185,1.223,0.373,1.637,0.535v25.398C171.219,215.773,168.075,214.092,165.594,211.402z"/>
		</defs>
		<use xlink:href="#SVGID_1_"  overflow="visible" fill="#D6842D"/>
		<clipPath id="SVGID_2_">
			<use xlink:href="#SVGID_1_"  overflow="visible"/>
		</clipPath>
		<rect y="55.445" clip-path="url(#SVGID_2_)" fill="#D6842D" width="358.814" height="254.265"/>
	</g>
</g>
</svg>
