<?xml version="1.0" encoding="utf-8"?>
<!-- Generator: Adobe Illustrator 16.0.4, SVG Export Plug-In . SVG Version: 6.00 Build 0)  -->
<!DOCTYPE svg PUBLIC "-//W3C//DTD SVG 1.1//EN" "http://www.w3.org/Graphics/SVG/1.1/DTD/svg11.dtd">
<svg version="1.1" id="Layer_1" xmlns="http://www.w3.org/2000/svg" xmlns:xlink="http://www.w3.org/1999/xlink" x="0px" y="0px"
	 width="50px" height="50px" viewBox="0 0 50 50" enable-background="new 0 0 50 50" xml:space="preserve">
<path fill="#D6842D" d="M47.021,25.469h-0.68l-7.535-13.646c-0.324-0.59-1.144-1.073-1.818-1.073H14.123
	c-0.675,0-1.494,0.483-1.819,1.073L4.768,25.469H4.091C2.74,25.469,1,26.573,1,27.922v12.266c0,1.35,1.74,2.453,3.091,2.453h1.815
	v3.68c0,2.024,2.294,3.681,4.317,3.681h1.227c2.024,0,3.042-1.655,3.042-3.681v-3.68h20.852v3.68c0,2.024,2.293,3.681,4.317,3.681
	h1.228c2.022,0,3.041-1.655,3.041-3.681v-3.68h3.092c1.35,0,1.814-1.104,1.814-2.453V27.922
	C48.836,26.573,48.369,25.469,47.021,25.469L47.021,25.469z M8.384,35.281c-1.693,0-3.066-1.373-3.066-3.066
	s1.373-3.066,3.066-3.066c1.694,0,3.066,1.373,3.066,3.066S10.077,35.281,8.384,35.281z M10.837,25.469l4.972-9.941
	c0.3-0.605,1.1-1.098,1.774-1.098h15.944c0.676,0,1.474,0.493,1.774,1.098l4.972,9.941H10.837z M42.729,35.281
	c-1.694,0-3.066-1.373-3.066-3.066s1.372-3.066,3.066-3.066c1.692,0,3.065,1.373,3.065,3.066S44.421,35.281,42.729,35.281z"/>
</svg>
