<svg xmlns="http://www.w3.org/2000/svg" width="100" height="100" viewBox="0 0 100 100"><circle fill="#D6842D" cx="50.138" cy="51.007" r="22.569"/><path fill="#D6842D" d="M97.444 51.486H79.31l8.323-8.322-2.105-2.105L73.61 52.975l11.917 11.917 2.105-2.105-8.322-8.322h18.134v-2.98zM48.572 3.03V21.16L40.25 12.84l-2.105 2.105 11.917 11.917L61.98 14.945l-2.106-2.105-8.322 8.322V3.03h-2.98zM2.652 54.07h18.132l-8.322 8.322 2.105 2.104L26.484 52.58 14.568 40.664l-2.105 2.105 8.322 8.32H2.65v2.98zm49.285 44.118V80.056l8.32 8.32 2.106-2.104-11.916-11.917L38.53 86.27l2.105 2.106 8.322-8.32v18.132h2.98z"/></svg>
