<?xml version="1.0" encoding="utf-8"?>
<!-- Generator: Adobe Illustrator 16.0.4, SVG Export Plug-In . SVG Version: 6.00 Build 0)  -->
<!DOCTYPE svg PUBLIC "-//W3C//DTD SVG 1.1//EN" "http://www.w3.org/Graphics/SVG/1.1/DTD/svg11.dtd">
<svg version="1.1" id="Layer_1" xmlns="http://www.w3.org/2000/svg" xmlns:xlink="http://www.w3.org/1999/xlink" x="0px" y="0px"
	 width="360px" height="360px" viewBox="0 0 360 360" enable-background="new 0 0 360 360" xml:space="preserve">
<g>
	<g>
		<defs>
			<path id="SVGID_1_" d="M251.76,284.771c0.539-9.957,2.584-32.502,10.371-49.567c7.59-16.64,32.502-37.367,45.025-47.082
				C303.953,228.213,282.74,263.214,251.76,284.771z M179.503,307.489c-20.934,0-40.71-5.123-58.175-14.194
				c8.63-6.541,26.343-16.299,55.254-16.299c32.109,0,49.125,12.393,55.83,18.875C216.277,303.331,198.357,307.489,179.503,307.489z
				 M51.662,185.359c11.349,9.203,33.992,29.244,41.24,47.968c6.419,16.581,8.271,35.937,8.781,47.348
				C73.062,258.391,53.943,224.139,51.662,185.359z M220.053,210.785c0,23.085-18.621,41.792-41.602,41.792
				c-22.979,0-41.606-18.707-41.606-41.792c0-23.08,18.627-41.792,41.606-41.792C201.432,168.994,220.053,187.705,220.053,210.785z
				 M179.503,47.546c65.874,0,120.286,50.728,127.307,115.706c-16.626-4.542-69.657-17.739-124.616-17.739
				c-56.588,0-113.938,11.361-129.639,14.716C60.914,96.708,114.652,47.546,179.503,47.546z M179.503,9.981
				C88.258,9.981,14.02,85.137,14.02,177.518c0,92.38,74.239,167.542,165.483,167.542c91.249,0,165.479-75.16,165.479-167.542
				S270.752,9.981,179.503,9.981z"/>
		</defs>
		<use xlink:href="#SVGID_1_"  overflow="visible" fill="#D6842D"/>
		<clipPath id="SVGID_2_">
			<use xlink:href="#SVGID_1_"  overflow="visible"/>
		</clipPath>
		<rect x="-7.532" y="-11.572" clip-path="url(#SVGID_2_)" fill="#D6842D" width="374.067" height="378.183"/>
	</g>
</g>
<g>
	<g>
		<defs>
			<path id="SVGID_3_" d="M177.984,242.719c17.553,0,31.79-14.296,31.79-31.934c0-17.633-14.235-31.929-31.79-31.929
				c-17.558,0-31.79,14.296-31.79,31.929C146.194,228.423,160.426,242.719,177.984,242.719z"/>
		</defs>
		<use xlink:href="#SVGID_3_"  overflow="visible" fill="#D6842D"/>
		<clipPath id="SVGID_4_">
			<use xlink:href="#SVGID_3_"  overflow="visible"/>
		</clipPath>
		<rect x="124.641" y="157.304" clip-path="url(#SVGID_4_)" fill="#D6842D" width="106.685" height="106.965"/>
	</g>
</g>
</svg>
