<svg xmlns="http://www.w3.org/2000/svg" xmlns:xlink="http://www.w3.org/1999/xlink" width="50" height="50" viewBox="0 0 50 50"><defs><path id="a" d="M16.762 30.518l-.005.005 4.138 4.137 16.031-16.032-4.138-4.136-11.89 11.889-4.041-4.042-4.137 4.138z"/></defs><clipPath id="b"><use xlink:href="#a" overflow="visible"/></clipPath><g clip-path="url(#b)"><defs><path id="c" d="M-290.021-48.193h548.507v713.06h-548.507z"/></defs><clipPath id="d"><use xlink:href="#c" overflow="visible"/></clipPath><path clip-path="url(#d)" fill="#FFF" d="M10.892 12.664h27.862v23.825H10.892z"/></g><g><defs><circle id="e" cx="24.959" cy="25.055" r="24.959"/></defs><clipPath id="f"><use xlink:href="#e" overflow="visible"/></clipPath><g clip-path="url(#f)"><defs><path id="g" d="M-183.654-49.078h558.785v726.42h-558.785z"/></defs><clipPath id="h"><use xlink:href="#g" overflow="visible"/></clipPath><path clip-path="url(#h)" fill="#DE5061" d="M-1.863-1.768h53.644v53.645H-1.863z"/></g></g><g><defs><path id="i" d="M29.173 25.055l6.059-6.059-4.213-4.215-6.06 6.059-6.059-6.059-4.214 4.215 6.058 6.059-6.058 6.058 4.214 4.215 6.059-6.06 6.06 6.06 4.213-4.215z"/></defs><clipPath id="j"><use xlink:href="#i" overflow="visible"/></clipPath><g clip-path="url(#j)"><defs><path id="k" d="M-183.654-49.078h558.785v726.42h-558.785z"/></defs><clipPath id="l"><use xlink:href="#k" overflow="visible"/></clipPath><path clip-path="url(#l)" fill="#FFF" d="M12.823 12.918h24.271v24.271H12.823z"/></g></g></svg>