<svg xmlns="http://www.w3.org/2000/svg" width="254.667" height="244" viewBox="0 0 254.667 244"><g fill="#BA7734"><path d="M65.729 184.344c.109.555.223 1.125.309 1.713.572 3.873 12.266 13.359 21.975 20.637l.193.132c1.059.649 26.111 15.928 40.958 18.012a43.53 43.53 0 0 0 6.01.394c11.474 0 24.834-3.853 34.591-6.666 5.698-1.644 10.618-3.062 12.858-3.062.109 0 .211.003.308.014 5.038.504 14.485 5.246 17.7 7.03l2.142 1.188 1.231-2.114c1.238-2.12 12.057-20.985 10.99-30.213-1.104-9.566-19.453-15.104-24.119-16.359-1.446-.891-6.156-3.269-15.174-3.269-.973 0-1.979.027-2.994.085-11.307.629-30.666 9.688-34.615 11.588l-24.278-3.154c-2.019-1.469-8.515-5.879-13.759-5.879-1.205 0-2.305.228-3.266.676-1.074.503-1.836.855-2.375 1.104-2.357-1.477-7.57-4.457-11.258-4.455-.582 0-1.133.068-1.635.205-1.48.404-2.598.863-3.414 1.414-1.068-.354-2.494-.688-4.051-.688-2.031 0-3.83.562-5.348 1.664-4.327 3.145-3.548 7.109-2.979 10.003zm33.173-4.719c.295-.137.682-.207 1.15-.207 1.557 0 4.01.76 6.297 1.621-1.246.744-3.049 2.057-4.258 2.924-1.662-.715-4.27-1.992-5.828-3.113.63-.288 1.469-.678 2.639-1.225zm-27.254-1.244c.654-.475 1.441-.707 2.406-.707 1.877 0 3.607.889 3.613.891l2.941 1.195c.252.187.602.414 1.1.705.326.291 2.285 1.42 2.719 1.67.418.275.854.535 1.287.801.436.263.881.506 1.34.705.451.217.91.396 1.344.586.436.193.887.31 1.301.445.414.135.809.25 1.188.324 1.49.352 2.541.312 2.541.312l-.586-.4c-.371-.238-.891-.594-1.527-.973l-1.016-.625c-.359-.22-.742-.439-1.137-.666-.393-.232-.787-.49-1.205-.72a20.652 20.652 0 0 1-1.246-.725c-.826-.496-1.695-.929-2.463-1.41-.771-.478-1.57-.824-2.188-1.219-.695-.41-1.301-.71-1.711-.898l-.881-.772c.279-.104 2.902-.002 3.367-.129.033-.01.131-.029.32-.029 1.951-.002 5.879 1.984 8.604 3.691l2.258 1.182h.01c1.74 1.859 5.02 3.227 6.041 3.6-.018.012-.037.018-.057.029-.289.18-.553.295-.893.594l-.475.41-.232.213-.141.162-.275.322-.068.08-.035.041-.018.02-.004.006-.107.17-.006.012-.117.183c-.312.481-.631.971-.922 1.496-.588 1.039-1.172 2.155-1.551 3.479-.176.668-.318 1.377-.332 2.146-.031.76.082 1.573.328 2.344.111.392.301.746.463 1.116.197.339.406.679.627.995.238.29.477.594.73.862l.787.746.07.064.141.084c.229.135.473.26.717.363.23.078.469.149.703.205.207.035.416.063.625.088.188.014.355.015.535.02.66-.006 1.199-.066 1.674-.121.963-.111 1.781-.201 2.613-.246a18.095 18.095 0 0 1 2.438.045l.572.055.691.091c.381.032.74.164 1.111.233.768.123 1.408.437 2.102.726l1.029.553 1.113.697 1.26.787c.467.258.953.505 1.432.749.488.242 1.096.435 1.643.639.268.09.59.221.812.266l.682.147.684.147.34.072.172.035.021.004.17.035h.012l.045.004.09.01 1.434.129 2.863.252c.959.084 1.908.148 2.84.168l2.814.078c3.756.134 14.395.435 16.113.679 1.719.249 3.44.487 5.18.661-1.596-.713-3.207-1.362-4.82-2.004-1.615-.645-4.43-1.121-4.43-1.121l-3.092-.5-8.648-1.723-2.75-.344a41.11 41.11 0 0 1-2.713-.379l-2.68-.398-1.338-.194-1.191-.3-.676-.172c-.23-.056-.328-.139-.498-.203-.311-.151-.602-.229-.939-.414l-1.027-.571-1.098-.703-1.242-.799c-.447-.265-.947-.524-1.42-.781-1.009-.442-2.089-.891-3.164-1.071-.541-.104-1.074-.261-1.623-.31l-.693-.082-.818-.056a22.91 22.91 0 0 0-3.139.052c-1.025.081-2.049.26-2.928.416-.445.079-.83.134-1.102.155-.102.01-.154.011-.188.012l-.188-.146-.4-.396-.314-.406c-.064-.146-.176-.274-.227-.425-.117-.294-.227-.602-.246-.971-.043-.359-.008-.771.055-1.204.15-.871.467-1.841.877-2.816l.646-1.5.084-.19.004-.012c-.045.071.105-.169-.1.157l.004-.006.014-.021.027-.045.057-.093.221-.36.109-.179.082-.069c.051-.051.102-.104.148-.16.055-.109.287-.273.457-.42.176-.154.365-.303.586-.437.408-.293.871-.537 1.332-.803a27.49 27.49 0 0 1 2.963-1.392c1.027-.41 2.07-.832 3.135-1.194 1.064-.371 3.197.397 4.285.053a.97.97 0 0 1-.305-.06l25.338 4.828.676-.334c.22-.108 22.009-10.782 33.369-11.414a49.412 49.412 0 0 1 2.718-.075c8.817 0 12.653 2.59 12.663 2.596l.388.283.459.119c8.311 2.18 20.264 7.405 20.815 12.2.66 5.724-5.579 18.513-9.161 25.03-3.894-2.007-12.072-5.934-17.439-6.47a8 8 0 0 0-.803-.038c-2.947 0-7.687 1.366-14.244 3.258-9.469 2.731-22.438 6.472-33.205 6.472-1.896 0-3.685-.116-5.314-.346-13.381-1.879-37.222-16.221-38.945-17.265-8.863-6.649-18.918-15.128-19.949-17.421a42.952 42.952 0 0 0-.33-1.82c-.57-2.892-.659-3.78 1.012-4.997z"/><path d="M223.722 182.252c4.291 0 9.453 2.994 14.009 5.635l.532.309c2.131 1.234 4.277 1.494 5.703 1.494 1.182 0 1.957-.178 1.965-.178l3.893-.9-.877 3.892c-.857 3.738-8.574 36.738-15.043 44.24l-.25.252c-3.91 3.412-7.016 3.922-8.518 3.922a5.123 5.123 0 0 1-1.25-.135l-.84-.218-.525-.689c-1.764-2.314-5.148-5.812-7.154-6.35a6.552 6.552 0 0 0-1.715-.215c-.568 0-1.129.06-1.67.117-.533.057-1.085.113-1.637.113-1.749 0-3.123-.648-4.084-1.932-2.076-2.769-.908-5.789 0-7 .129-.161 6.941-8.598 9.697-16.566 2.494-7.211 1.744-15.941 1.594-17.416-.254-.865-.734-3.105.305-5.154.503-.994 1.555-2.309 3.71-2.932a7.811 7.811 0 0 1 2.155-.289zm19.572 12.424c-2.01-.081-4.769-.55-7.537-2.152l-.535-.311c-3.609-2.094-8.555-4.961-11.499-4.961-.296 0-.556.031-.769.092-.519.15-.607.328-.639.387-.207.41-.054 1.263.04 1.519l.101.271.035.287c.055.441 1.284 10.928-1.808 19.87-2.923 8.452-9.601 16.911-10.414 17.923-.213.342-.233.656-.06.938.218.013.719-.027 1.244-.083.64-.068 1.362-.145 2.195-.145 1.053 0 2.035.125 3.003.383 3.593.959 7.356 5.092 9.06 7.162.843-.155 2.396-.697 4.513-2.508 4.324-5.266 10.301-27.265 13.07-38.672z"/><path d="M230.511 192.359c2.457 0 4.457 2 4.457 4.459s-2 4.459-4.457 4.459c-2.459 0-4.459-2-4.459-4.459s2-4.459 4.459-4.459zm0 6.918a2.461 2.461 0 0 0 2.457-2.459c0-1.354-1.102-2.459-2.457-2.459s-2.459 1.104-2.459 2.459a2.462 2.462 0 0 0 2.459 2.459z"/></g><path fill="#EAA926" d="M91.603 66.188L65.9 85.255l-.619 73.665 59.236 37 59.236-39.666-2-73.034-22.209-15.72-39.211-8.251z"/><path fill="none" stroke="#BA7734" stroke-width="6" stroke-miterlimit="10" d="M124.517 122.884v69.464M65.281 82.29v76.63l59.236 37 59.236-39.666v-73.5"/><path fill="none" stroke="#BA7734" stroke-width="6" stroke-miterlimit="10" d="M142.875 61.215l-28.047-2.453s-11.657 6.453-26.946 8.959l-20.6 14.568 57.236 40.595 57.236-39.665-22.21-15.719-16.669-6.285z"/><g fill="#BA7734"><path d="M188.228 59.354c-.109-.554-.223-1.124-.309-1.713-.572-3.872-12.267-13.359-21.976-20.636l-.192-.131c-1.06-.649-26.111-15.928-40.959-18.011a43.53 43.53 0 0 0-6.01-.394c-11.474 0-24.834 3.854-34.59 6.667-5.699 1.643-10.619 3.062-12.859 3.062-.109 0-.212-.003-.307-.013-5.039-.503-14.486-5.247-17.702-7.031l-2.14-1.188-1.233 2.114c-1.237 2.121-12.055 20.986-10.99 30.213 1.104 9.566 19.454 15.103 24.12 16.359 1.446.89 6.156 3.268 15.174 3.268.973 0 1.98-.028 2.994-.085 11.307-.628 30.666-9.688 34.615-11.587l24.279 3.153c2.021 1.47 8.517 5.88 13.76 5.88 1.205 0 2.306-.229 3.267-.676a568.29 568.29 0 0 1 2.375-1.104c2.356 1.477 7.57 4.457 11.258 4.456.582 0 1.133-.069 1.635-.206 1.48-.404 2.598-.862 3.414-1.414 1.068.353 2.494.687 4.051.687 2.031 0 3.83-.56 5.348-1.664 4.325-3.148 3.545-7.112 2.977-10.006zm-33.174 4.719c-.295.138-.682.208-1.15.208-1.557 0-4.01-.76-6.297-1.622 1.246-.743 3.049-2.056 4.258-2.923 1.662.715 4.27 1.992 5.828 3.112-.629.287-1.469.679-2.639 1.225zm27.254 1.244c-.654.476-1.441.707-2.406.707-1.877 0-3.607-.888-3.613-.891l-2.94-1.194a13.05 13.05 0 0 0-1.101-.706c-.326-.29-2.285-1.42-2.719-1.669-.418-.274-.854-.536-1.287-.8a11.367 11.367 0 0 0-1.34-.706c-.451-.217-.91-.396-1.344-.587-.436-.192-.887-.309-1.301-.445a9.976 9.976 0 0 0-1.188-.323c-1.489-.353-2.541-.314-2.541-.314l.586.401c.371.238.892.594 1.527.973.313.193.653.402 1.017.624.358.219.741.44 1.137.666.393.232.787.491 1.205.719s.838.465 1.246.725c.825.497 1.694.928 2.463 1.41.771.477 1.569.825 2.188 1.219.695.411 1.301.709 1.711.899l.881.772c-.279.104-2.902.003-3.367.129a1.28 1.28 0 0 1-.32.03c-1.95 0-5.879-1.984-8.604-3.693l-2.258-1.18h-.01c-1.74-1.859-5.02-3.228-6.041-3.601.018-.011.037-.018.057-.029.289-.178.553-.293.893-.593l.476-.41.231-.213.142-.163.274-.322.068-.081.035-.041.018-.02.004-.005.107-.17.006-.011.117-.182c.312-.482.631-.972.922-1.496.588-1.041 1.172-2.157 1.551-3.479.176-.668.318-1.378.332-2.146a6.894 6.894 0 0 0-.328-2.344c-.11-.39-.301-.746-.463-1.116a14.664 14.664 0 0 0-.627-.996c-.238-.29-.477-.593-.729-.863l-.787-.745-.069-.065-.142-.083a6.122 6.122 0 0 0-.718-.364 8.028 8.028 0 0 0-.702-.206 10.912 10.912 0 0 0-.625-.086c-.188-.014-.354-.015-.535-.02-.66.006-1.199.067-1.674.12-.964.112-1.781.202-2.613.247-.817.043-1.655.021-2.438-.046l-.571-.053-.691-.09c-.381-.033-.739-.164-1.11-.234-.769-.125-1.408-.437-2.103-.726l-1.028-.552-1.113-.697-1.26-.788c-.467-.258-.953-.505-1.433-.749-.487-.242-1.096-.435-1.644-.639-.268-.088-.59-.221-.812-.266l-.682-.148-.685-.147-.34-.073-.172-.035-.021-.004-.17-.034-.012-.001-.045-.004-.09-.008-1.434-.129-2.864-.252a43.228 43.228 0 0 0-2.84-.167l-2.814-.08c-3.755-.133-14.394-.433-16.113-.678-1.719-.249-3.44-.488-5.179-.662 1.595.714 3.207 1.364 4.82 2.005 1.614.644 4.43 1.12 4.43 1.12l3.092.5 8.648 1.724 2.75.342a40.54 40.54 0 0 1 2.713.38l2.68.398 1.338.196 1.191.298.676.171c.23.056.328.14.498.204.311.152.602.229.939.414l1.027.571 1.098.704 1.242.798c.447.265.947.525 1.42.782 1.01.442 2.09.89 3.164 1.071.541.104 1.074.26 1.623.309l.692.082.817.055a22.77 22.77 0 0 0 3.14-.05c1.024-.082 2.05-.261 2.929-.416.444-.08.83-.134 1.102-.156.102-.009.154-.01.188-.011l.188.148.399.394.314.406c.064.146.176.275.227.425.117.294.228.601.246.97.043.36.008.772-.055 1.204-.15.873-.467 1.84-.877 2.817l-.646 1.5-.084.19-.004.012c.045-.071-.104.168.101-.158l-.005.006-.014.022-.027.045-.057.09-.221.361-.109.178-.082.071a1.602 1.602 0 0 0-.147.16c-.056.108-.287.272-.457.418a4.135 4.135 0 0 1-.586.437c-.408.292-.871.537-1.332.803a27.38 27.38 0 0 1-2.963 1.39c-1.027.41-2.07.833-3.136 1.196-1.063.371-3.196-.4-4.285-.053.097 0 .199.025.306.058l-25.338-4.827-.677.334c-.219.108-22.008 10.782-33.368 11.413-.922.051-1.836.077-2.717.077-8.818 0-12.654-2.59-12.665-2.597l-.386-.282-.46-.121c-8.311-2.179-20.263-7.405-20.816-12.201-.66-5.722 5.58-18.511 9.162-25.029 3.894 2.007 12.074 5.934 17.44 6.47.247.024.517.038.804.038 2.946 0 7.686-1.367 14.244-3.258 9.469-2.731 22.438-6.471 33.205-6.471 1.895 0 3.683.116 5.314.345 13.381 1.878 37.223 16.22 38.944 17.264 8.863 6.65 18.918 15.127 19.949 17.42.096.625.213 1.231.33 1.82.568 2.898.658 3.786-1.014 5.003z"/><path d="M30.233 61.447c-4.29 0-9.453-2.995-14.008-5.636l-.532-.309c-2.131-1.233-4.278-1.493-5.704-1.493-1.181 0-1.956.176-1.964.178l-3.894.899.877-3.89c.858-3.738 8.575-36.737 15.043-44.24l.25-.251c3.912-3.413 7.016-3.922 8.518-3.922.631 0 1.054.084 1.25.135l.839.216.526.69c1.764 2.314 5.149 5.813 7.155 6.349a6.552 6.552 0 0 0 1.715.215c.569 0 1.128-.059 1.67-.117.533-.056 1.084-.114 1.636-.114 1.749 0 3.123.65 4.084 1.932 2.076 2.769.908 5.79 0 7-.129.162-6.943 8.598-9.698 16.567-2.493 7.21-1.744 15.94-1.593 17.415.254.867.734 3.106-.304 5.156-.503.994-1.556 2.309-3.71 2.931a7.813 7.813 0 0 1-2.156.289zM10.661 49.023c2.01.081 4.768.549 7.536 2.152l.536.311c3.61 2.094 8.555 4.961 11.5 4.961.296 0 .555-.032.769-.093.517-.149.608-.328.638-.387.207-.41.053-1.262-.041-1.517l-.1-.271-.035-.288c-.054-.442-1.285-10.926 1.808-19.87 2.922-8.453 9.6-16.911 10.413-17.922.214-.341.234-.657.06-.939-.218-.013-.719.027-1.245.083-.639.067-1.363.144-2.195.144-1.053 0-2.035-.125-3.003-.384-3.592-.958-7.356-5.091-9.06-7.162-.842.156-2.397.698-4.512 2.508-4.324 5.268-10.299 27.268-13.069 38.674z"/><path d="M23.445 51.338c-2.458 0-4.458-2-4.458-4.458s2-4.458 4.458-4.458 4.458 2 4.458 4.458-2 4.458-4.458 4.458zm0-6.917c-1.355 0-2.458 1.103-2.458 2.458s1.103 2.458 2.458 2.458 2.458-1.103 2.458-2.458-1.103-2.458-2.458-2.458z"/></g></svg>