<?xml version="1.0" encoding="utf-8"?>
<!-- Generator: Adobe Illustrator 16.0.4, SVG Export Plug-In . SVG Version: 6.00 Build 0)  -->
<!DOCTYPE svg PUBLIC "-//W3C//DTD SVG 1.1//EN" "http://www.w3.org/Graphics/SVG/1.1/DTD/svg11.dtd">
<svg version="1.1" id="Layer_2" xmlns="http://www.w3.org/2000/svg" xmlns:xlink="http://www.w3.org/1999/xlink" x="0px" y="0px"
	 width="254.667px" height="244px" viewBox="0 0 254.667 244" enable-background="new 0 0 254.667 244" xml:space="preserve">
<polygon fill="#D6842D" stroke="#BA7734" stroke-width="6" stroke-miterlimit="10" points="128.833,60 111.333,59.5 89.833,67 
	67.282,82.289 65.281,158.92 91.333,175 102.091,183.963 123.583,195 141.333,183.875 183.753,156.254 181.753,83.219 
	149.167,64.167 137.833,59.5 "/>
<g>
	
		<line fill="none" stroke="#1C283B" stroke-width="10" stroke-miterlimit="10" x1="124.517" y1="122.884" x2="124.167" y2="184.333"/>
	<polyline fill="none" stroke="#1C283B" stroke-width="10" stroke-miterlimit="10" points="65.281,82.29 65.281,158.92 
		104.059,183.141 124.333,198.5 141.333,183.875 183.753,156.254 183.753,82.754 	"/>
	<path fill="none" stroke="#1C283B" stroke-width="10" stroke-miterlimit="10" d="M148.083,52l-31.25-2.5c0,0-1.711,6.494-17,9
		L67.282,82.289l57.236,40.595l57.235-39.665l-33.17-23.469L148.083,52z"/>
</g>
<polygon fill="#D6842D" points="52.333,24 41.333,49 44.833,57.5 66.333,67.5 89.833,67 114.828,58.762 147.607,62.659 165.833,68 
	174.489,66.797 184.333,66 184.833,58 171.833,42.5 145.833,28 127.833,21 95.833,23.5 83.833,28.5 67.333,30 "/>
<polygon fill="#D6842D" points="200.833,219.5 211.833,194.5 208.333,186 186.833,176 163.333,176.5 138.339,184.738 
	105.56,180.841 87.333,175.5 78.678,176.703 68.833,177.5 68.333,185.5 81.333,201 107.333,215.5 125.333,222.5 157.333,220 
	169.333,215 185.833,213.5 "/>
<path fill="#1C283B" d="M188.228,59.354c-0.109-0.554-0.223-1.124-0.309-1.713c-0.572-3.872-12.268-13.359-21.977-20.636
	l-0.191-0.131c-1.061-0.649-26.111-15.928-40.959-18.011c-1.861-0.261-3.883-0.394-6.01-0.394c-11.474,0-24.834,3.853-34.59,6.667
	c-5.699,1.643-10.619,3.062-12.859,3.062c-0.109,0-0.212-0.003-0.307-0.013c-5.039-0.503-14.486-5.247-17.702-7.031l-2.14-1.188
	l-1.233,2.114c-1.237,2.121-12.055,20.986-10.99,30.213c1.104,9.566,19.454,15.103,24.12,16.359
	c1.446,0.89,6.156,3.268,15.174,3.268c0.973,0,1.98-0.028,2.994-0.085c11.307-0.628,30.666-9.688,34.615-11.587l24.279,3.153
	c2.272,0.266,3.78,0.766,9.024,0.766c1.205,0,4.912,1.228,7.416,2.583c1.074-0.502,2.422,1,2.961,0.751
	c2.355,1.477,7.57,4.457,11.258,4.456c0.582,0,1.133-0.069,1.635-0.206c1.48-0.404,2.598-0.862,3.414-1.414
	c1.068,0.353,2.494,0.687,4.051,0.687c2.031,0,3.83-0.56,5.348-1.664C189.576,66.212,188.796,62.248,188.228,59.354z
	 M155.054,64.073c-0.295,0.138-0.682,0.208-1.15,0.208c-1.557,0-4.01-0.76-6.297-1.622c1.246-0.743,3.049-2.056,4.258-2.923
	c1.662,0.715,4.27,1.992,5.828,3.112C157.064,63.135,156.224,63.527,155.054,64.073z M182.308,65.317
	c-0.654,0.476-1.441,0.707-2.406,0.707c-1.877,0-3.607-0.888-3.613-0.891l-2.939-1.194c-0.252-0.185-0.604-0.414-1.102-0.706
	c-0.326-0.29-2.285-1.42-2.719-1.669c-0.418-0.274-0.854-0.536-1.287-0.8c-0.436-0.263-0.881-0.507-1.34-0.706
	c-0.451-0.217-0.91-0.396-1.344-0.587c-0.436-0.192-0.887-0.309-1.301-0.445c-0.414-0.135-0.809-0.25-1.188-0.323
	c-1.489-0.353-2.541-0.314-2.541-0.314s0.214,0.146,0.586,0.401c0.371,0.238,0.892,0.594,1.527,0.973
	c0.313,0.193,0.653,0.402,1.017,0.624c0.358,0.219,0.741,0.44,1.137,0.666c0.394,0.232,0.787,0.491,1.205,0.719
	s0.838,0.465,1.246,0.725c0.825,0.497,1.694,0.928,2.463,1.41c0.771,0.477,1.569,0.825,2.188,1.219
	c0.694,0.411,1.301,0.709,1.711,0.899l0.881,0.772c-0.278,0.104-2.901,0.003-3.366,0.129c-0.033,0.009-0.131,0.03-0.32,0.03
	c-1.95,0-5.879-1.984-8.604-3.693l-2.258-1.18c-0.004,0-0.006,0-0.01,0c-1.74-1.859-5.021-3.228-6.041-3.601
	c0.019-0.011,0.036-0.018,0.057-0.029c0.289-0.178,0.554-0.293,0.894-0.593l0.476-0.41l0.231-0.213l0.142-0.163l0.274-0.322
	l0.067-0.081l0.035-0.041l0.019-0.02l0.004-0.005l0.106-0.17l0.007-0.011l0.116-0.182c0.312-0.482,0.631-0.972,0.922-1.496
	c0.589-1.041,1.173-2.157,1.552-3.479c0.176-0.668,0.317-1.378,0.332-2.146c0.03-0.759-0.082-1.574-0.328-2.344
	c-0.11-0.39-0.301-0.746-0.463-1.116c-0.197-0.339-0.406-0.678-0.627-0.996c-0.238-0.29-0.478-0.593-0.729-0.863l-0.787-0.745
	l-0.069-0.065l-0.142-0.083c-0.229-0.135-0.474-0.261-0.718-0.364c-0.229-0.079-0.469-0.149-0.702-0.206
	c-0.207-0.035-0.416-0.063-0.625-0.086c-0.188-0.014-0.354-0.015-0.535-0.02c-0.66,0.006-1.199,0.067-1.674,0.12
	c-0.964,0.112-1.781,0.202-2.613,0.247c-0.817,0.043-1.655,0.021-2.438-0.046l-0.57-0.053l-0.691-0.09
	c-0.381-0.033-0.738-0.164-1.109-0.234c-0.77-0.125-1.408-0.437-2.104-0.726l-1.027-0.552l-1.113-0.697l-1.26-0.788
	c-0.467-0.258-0.953-0.505-1.434-0.749c-0.486-0.242-1.096-0.435-1.645-0.639c-0.268-0.088-0.59-0.221-0.811-0.266l-0.683-0.148
	l-0.685-0.147l-0.34-0.073l-0.173-0.035l-0.021-0.004l-0.17-0.034l-0.012-0.001l-0.046-0.004l-0.09-0.008l-1.435-0.129l-2.863-0.252
	c-0.958-0.083-1.907-0.148-2.84-0.167l-2.814-0.08c-3.755-0.133-14.394-0.433-16.113-0.678c-1.719-0.249-3.44-0.488-5.179-0.662
	c1.595,0.714,3.207,1.364,4.82,2.005c1.614,0.644,4.43,1.12,4.43,1.12l3.092,0.5l8.648,1.724l2.75,0.342
	c0.926,0.094,1.825,0.229,2.713,0.38l2.681,0.398l1.338,0.196l1.19,0.298l0.677,0.171c0.229,0.056,0.327,0.14,0.498,0.204
	c0.311,0.152,0.602,0.229,0.938,0.414l1.026,0.571l1.099,0.704l1.241,0.798c0.447,0.265,0.947,0.525,1.42,0.782
	c1.011,0.442,2.091,0.89,3.164,1.071c0.541,0.104,1.074,0.26,1.623,0.309l0.692,0.082l0.817,0.055c1.074,0.054,2.101,0.04,3.14-0.05
	c1.024-0.082,2.05-0.261,2.929-0.416c0.444-0.08,0.83-0.134,1.103-0.156c0.103-0.009,0.153-0.01,0.188-0.011l0.188,0.148
	l0.398,0.394l0.314,0.406c0.064,0.146,0.176,0.275,0.227,0.425c0.117,0.294,0.229,0.601,0.246,0.97
	c0.043,0.36,0.008,0.772-0.055,1.204c-0.15,0.873-0.467,1.84-0.877,2.817l-0.646,1.5l-0.084,0.19l-0.004,0.012
	c0.045-0.071-0.104,0.168,0.102-0.158l-0.006,0.006l-0.014,0.022l-0.027,0.045l-0.057,0.09l-0.221,0.361l-0.109,0.178l-0.082,0.071
	c-0.051,0.049-0.102,0.103-0.146,0.16c-0.057,0.108-0.287,0.272-0.457,0.418c-0.178,0.154-0.365,0.304-0.586,0.437
	c-0.408,0.292-0.871,0.537-1.332,0.803c-0.938,0.51-1.934,0.981-2.963,1.39c-1.027,0.41-2.07,0.833-3.137,1.196
	c-1.062,0.371-3.195-0.4-4.285-0.053c0.098,0,0.199,0.025,0.307,0.058l-25.338-4.827l-0.677,0.334
	c-0.219,0.108-22.008,10.782-33.368,11.413c-0.922,0.051-1.836,0.077-2.717,0.077c-8.818,0-12.654-2.59-12.665-2.597l-0.386-0.282
	l-0.46-0.121c-8.311-2.179-20.263-7.405-20.816-12.201c-0.66-5.722,5.58-18.511,9.162-25.029c3.894,2.007,12.074,5.934,17.44,6.47
	c0.247,0.024,0.517,0.038,0.804,0.038c2.946,0,7.686-1.367,14.244-3.258c9.469-2.731,22.438-6.471,33.205-6.471
	c1.895,0,3.683,0.116,5.314,0.345c13.381,1.878,37.223,16.22,38.943,17.264c8.863,6.65,18.918,15.127,19.949,17.42
	c0.096,0.625,0.213,1.231,0.33,1.82C183.89,63.212,183.98,64.1,182.308,65.317z"/>
<g>
	<path fill="#D6842D" d="M30.233,61.447c-4.29,0-9.453-2.995-14.008-5.636l-0.532-0.309c-2.131-1.233-4.278-1.493-5.704-1.493
		c-1.181,0-1.956,0.176-1.964,0.178l-3.894,0.899l0.877-3.89c0.858-3.738,8.575-36.737,15.043-44.24l0.25-0.251
		c3.912-3.413,7.016-3.922,8.518-3.922c0.631,0,1.054,0.084,1.25,0.135l0.839,0.216l0.526,0.69c1.764,2.314,5.149,5.813,7.155,6.349
		c0.542,0.145,1.103,0.215,1.715,0.215l0,0c0.569,0,1.128-0.059,1.67-0.117c0.533-0.056,1.084-0.114,1.636-0.114
		c1.749,0,3.123,0.65,4.084,1.932c2.076,2.769,0.908,5.79,0,7c-0.129,0.162-6.943,8.598-9.698,16.567
		c-2.493,7.21-1.744,15.94-1.593,17.415c0.254,0.867,0.734,3.106-0.304,5.156c-0.503,0.994-1.556,2.309-3.71,2.931
		C31.724,61.349,30.999,61.447,30.233,61.447z M10.661,49.023c2.01,0.081,4.768,0.549,7.536,2.152l0.536,0.311
		c3.61,2.094,8.555,4.961,11.5,4.961c0.296,0,0.555-0.032,0.769-0.093c0.517-0.149,0.608-0.328,0.638-0.387
		c0.207-0.41,0.053-1.262-0.041-1.517l-0.1-0.271l-0.035-0.288c-0.054-0.442-1.285-10.926,1.808-19.87
		c2.922-8.453,9.6-16.911,10.413-17.922c0.214-0.341,0.234-0.657,0.06-0.939c-0.218-0.013-0.719,0.027-1.245,0.083
		c-0.639,0.067-1.363,0.144-2.195,0.144l0,0c-1.053,0-2.035-0.125-3.003-0.384c-3.592-0.958-7.356-5.091-9.06-7.162
		c-0.842,0.156-2.397,0.698-4.512,2.508C19.406,15.617,13.431,37.617,10.661,49.023z"/>
	<path fill="#D6842D" d="M23.445,51.338c-2.458,0-4.458-2-4.458-4.458s2-4.458,4.458-4.458s4.458,2,4.458,4.458
		S25.903,51.338,23.445,51.338z M23.445,44.421c-1.355,0-2.458,1.103-2.458,2.458s1.103,2.458,2.458,2.458s2.458-1.103,2.458-2.458
		S24.8,44.421,23.445,44.421z"/>
</g>
<path fill="#1C283B" d="M65.729,184.344c0.109,0.555,0.223,1.125,0.309,1.713c0.572,3.873,12.266,13.359,21.975,20.637l0.193,0.133
	c1.059,0.648,26.111,15.928,40.958,18.012c1.861,0.262,3.883,0.395,6.01,0.395c11.475,0,24.834-3.854,34.592-6.666
	c5.697-1.645,10.617-3.062,12.857-3.062c0.109,0,0.211,0.003,0.309,0.014c5.037,0.504,14.484,5.246,17.699,7.03l2.143,1.188
	l1.23-2.114c1.238-2.12,12.058-20.985,10.99-30.213c-1.104-9.566-19.453-15.104-24.119-16.359
	c-1.445-0.891-6.156-3.269-15.174-3.269c-0.973,0-1.979,0.027-2.994,0.084c-11.307,0.63-30.666,9.688-34.615,11.589l-24.277-3.154
	c-2.019-1.469-6.569,0.035-11.813,0.035c-1.205,0-4.206-3.782-5.167-3.334c-1.074,0.503-1.881-1.049-2.42-0.8
	c-2.357-1.477-7.57-4.457-11.258-4.455c-0.582,0-1.133,0.068-1.635,0.205c-1.48,0.404-2.598,0.863-3.414,1.414
	c-1.068-0.354-2.494-0.688-4.051-0.688c-2.031,0-3.83,0.562-5.348,1.664C64.381,177.486,65.16,181.45,65.729,184.344z
	 M98.902,179.625c0.295-0.137,0.682-0.207,1.15-0.207c1.557,0,4.01,0.76,6.297,1.621c-1.246,0.744-3.049,2.057-4.258,2.924
	c-1.662-0.715-4.27-1.992-5.828-3.113C96.893,180.562,97.732,180.172,98.902,179.625z M71.648,178.381
	c0.654-0.475,1.441-0.707,2.406-0.707c1.877,0,3.607,0.889,3.613,0.891l2.941,1.195c0.252,0.186,0.602,0.414,1.1,0.705
	c0.326,0.291,2.285,1.42,2.719,1.67c0.418,0.275,0.854,0.535,1.287,0.801c0.436,0.264,0.881,0.506,1.34,0.705
	c0.451,0.217,0.91,0.396,1.344,0.586c0.436,0.193,0.887,0.311,1.301,0.445c0.414,0.135,0.809,0.25,1.188,0.324
	c1.49,0.352,2.541,0.312,2.541,0.312s-0.213-0.146-0.586-0.4c-0.371-0.238-0.891-0.594-1.527-0.973
	c-0.314-0.193-0.654-0.402-1.016-0.625c-0.359-0.221-0.742-0.439-1.137-0.666c-0.393-0.232-0.787-0.49-1.205-0.721
	c-0.418-0.227-0.838-0.465-1.246-0.725c-0.826-0.496-1.695-0.93-2.463-1.41c-0.771-0.479-1.57-0.824-2.188-1.221
	c-0.695-0.408-1.301-0.709-1.711-0.896l-0.881-0.771c0.279-0.104,2.902-0.002,3.367-0.129c0.033-0.01,0.131-0.029,0.32-0.029
	c1.951-0.002,5.879,1.984,8.604,3.691l2.258,1.182c0.004,0,0.006,0,0.01,0c1.74,1.859,5.02,3.227,6.041,3.6
	c-0.018,0.012-0.037,0.018-0.057,0.029c-0.289,0.18-0.553,0.295-0.893,0.594l-0.475,0.41l-0.232,0.213l-0.141,0.162l-0.275,0.322
	l-0.068,0.08l-0.035,0.041l-0.018,0.02l-0.004,0.006l-0.107,0.17l-0.006,0.012l-0.117,0.184c-0.312,0.48-0.631,0.973-0.922,1.496
	c-0.588,1.039-1.172,2.154-1.551,3.479c-0.176,0.668-0.318,1.377-0.332,2.146c-0.031,0.76,0.082,1.572,0.328,2.344
	c0.111,0.393,0.301,0.746,0.463,1.116c0.197,0.339,0.406,0.679,0.627,0.995c0.238,0.289,0.477,0.594,0.73,0.861l0.787,0.746
	l0.07,0.064l0.141,0.084c0.229,0.135,0.473,0.26,0.717,0.363c0.23,0.078,0.469,0.149,0.703,0.205
	c0.207,0.035,0.416,0.062,0.625,0.088c0.188,0.014,0.355,0.015,0.535,0.02c0.66-0.006,1.199-0.066,1.674-0.121
	c0.963-0.111,1.781-0.201,2.613-0.246c0.818-0.043,1.656-0.021,2.438,0.045l0.572,0.055l0.691,0.092
	c0.381,0.031,0.74,0.164,1.111,0.232c0.768,0.123,1.408,0.438,2.102,0.727l1.029,0.553l1.113,0.697l1.26,0.787
	c0.467,0.258,0.953,0.505,1.432,0.749c0.488,0.241,1.096,0.437,1.643,0.639c0.268,0.091,0.59,0.222,0.812,0.267l0.682,0.146
	l0.684,0.146l0.34,0.072l0.172,0.035l0.021,0.004l0.17,0.035h0.012l0.045,0.004l0.09,0.01l1.434,0.129l2.863,0.252
	c0.959,0.084,1.908,0.148,2.84,0.168l2.814,0.078c3.756,0.133,14.395,0.436,16.113,0.68c1.719,0.249,3.439,0.486,5.18,0.66
	c-1.596-0.713-3.207-1.361-4.82-2.004c-1.615-0.645-4.43-1.121-4.43-1.121l-3.092-0.5l-8.648-1.723l-2.75-0.344
	c-0.926-0.094-1.826-0.229-2.713-0.379l-2.68-0.398l-1.338-0.193l-1.191-0.301l-0.676-0.172c-0.23-0.056-0.328-0.139-0.498-0.203
	c-0.311-0.15-0.602-0.229-0.939-0.414l-1.027-0.57l-1.098-0.703l-1.242-0.799c-0.447-0.266-0.947-0.523-1.42-0.781
	c-1.009-0.441-2.089-0.893-3.164-1.07c-0.541-0.104-1.074-0.262-1.623-0.311l-0.693-0.082l-0.818-0.057
	c-1.074-0.053-2.1-0.037-3.139,0.053c-1.025,0.081-2.049,0.26-2.928,0.416c-0.445,0.079-0.83,0.134-1.102,0.154
	c-0.102,0.011-0.154,0.012-0.188,0.013l-0.188-0.146l-0.4-0.396l-0.314-0.406c-0.064-0.146-0.176-0.273-0.227-0.425
	c-0.117-0.294-0.227-0.603-0.246-0.972c-0.043-0.358-0.008-0.771,0.055-1.205c0.15-0.869,0.467-1.84,0.877-2.814l0.646-1.5
	l0.084-0.189l0.004-0.012c-0.045,0.07,0.105-0.168-0.1,0.156l0.004-0.006l0.014-0.021l0.027-0.045l0.057-0.093l0.221-0.36
	l0.109-0.179l0.082-0.069c0.051-0.051,0.102-0.104,0.148-0.16c0.055-0.108,0.287-0.272,0.457-0.42
	c0.176-0.153,0.365-0.303,0.586-0.437c0.408-0.293,0.871-0.536,1.332-0.803c0.938-0.511,1.932-0.981,2.963-1.392
	c1.027-0.41,2.07-0.832,3.135-1.194c1.064-0.371,3.197,0.397,4.285,0.053c-0.096,0-0.199-0.024-0.305-0.06l25.338,4.828l0.676-0.334
	c0.22-0.108,22.009-10.783,33.369-11.414c0.922-0.051,1.836-0.076,2.718-0.076c8.817,0,12.653,2.591,12.663,2.597l0.388,0.283
	l0.459,0.118c8.312,2.181,20.265,7.406,20.815,12.201c0.66,5.724-5.579,18.513-9.161,25.03c-3.894-2.008-12.072-5.935-17.439-6.471
	c-0.245-0.024-0.516-0.038-0.803-0.038c-2.947,0-7.687,1.366-14.244,3.259c-9.469,2.73-22.438,6.472-33.205,6.472
	c-1.896,0-3.684-0.116-5.313-0.347c-13.381-1.879-37.222-16.221-38.945-17.265c-8.863-6.648-18.918-15.128-19.949-17.421
	c-0.096-0.623-0.213-1.229-0.33-1.82C70.066,180.486,69.977,179.598,71.648,178.381z"/>
<g>
	<path fill="#D6842D" d="M223.722,182.252c4.291,0,9.453,2.994,14.009,5.635l0.532,0.309c2.131,1.234,4.277,1.494,5.703,1.494
		c1.182,0,1.957-0.178,1.965-0.178l3.893-0.9l-0.877,3.893c-0.857,3.738-8.574,36.738-15.043,44.24l-0.25,0.252
		c-3.91,3.412-7.016,3.922-8.518,3.922c-0.631,0-1.055-0.085-1.25-0.135l-0.84-0.219l-0.525-0.688
		c-1.764-2.313-5.148-5.812-7.154-6.351c-0.541-0.145-1.104-0.215-1.715-0.215l0,0c-0.568,0-1.129,0.061-1.67,0.117
		c-0.533,0.057-1.085,0.113-1.637,0.113c-1.749,0-3.123-0.648-4.084-1.932c-2.076-2.77-0.908-5.789,0-7
		c0.129-0.161,6.941-8.598,9.697-16.566c2.494-7.211,1.744-15.941,1.594-17.416c-0.254-0.865-0.734-3.105,0.305-5.154
		c0.503-0.994,1.555-2.309,3.71-2.932C222.232,182.35,222.957,182.252,223.722,182.252z M243.294,194.676
		c-2.01-0.08-4.77-0.55-7.537-2.152l-0.535-0.311c-3.609-2.094-8.555-4.961-11.499-4.961c-0.296,0-0.556,0.031-0.769,0.092
		c-0.52,0.15-0.607,0.328-0.64,0.387c-0.207,0.41-0.054,1.264,0.04,1.52l0.102,0.271l0.035,0.287
		c0.055,0.44,1.283,10.928-1.809,19.869c-2.924,8.452-9.602,16.911-10.414,17.924c-0.213,0.342-0.232,0.655-0.061,0.938
		c0.219,0.013,0.72-0.025,1.244-0.083c0.641-0.067,1.362-0.146,2.195-0.146l0,0c1.053,0,2.035,0.125,3.003,0.383
		c3.593,0.959,7.356,5.093,9.06,7.162c0.844-0.154,2.396-0.696,4.514-2.508C234.548,228.082,240.525,206.083,243.294,194.676z"/>
	<path fill="#D6842D" d="M230.511,192.359c2.457,0,4.457,2,4.457,4.459s-2,4.459-4.457,4.459c-2.459,0-4.459-2-4.459-4.459
		S228.052,192.359,230.511,192.359z M230.511,199.277c1.355,0,2.457-1.104,2.457-2.459s-1.102-2.459-2.457-2.459
		s-2.459,1.104-2.459,2.459S229.156,199.277,230.511,199.277z"/>
</g>
</svg>
